<?xml version="1.0" encoding="iso-8859-1"?><!-- Generator: Adobe Illustrator 20.1.0, SVG Export Plug-In . SVG Version: 6.00 Build 0)  --><svg xmlns="http://www.w3.org/2000/svg" xmlns:xlink="http://www.w3.org/1999/xlink" viewBox="0 0 50 50" width="150px" height="150px"><path d="M45.165,13.894l-0.52-0.854c-3.174-5.214-8.225-8.888-14.222-10.346C24.427,1.233,18.252,2.18,13.04,5.354C7.826,8.528,4.151,13.579,2.693,19.576c-1.458,5.997-0.513,12.17,2.661,17.384s8.225,8.888,14.222,10.346c1.84,0.448,3.695,0.669,5.536,0.668c4.158,0,8.234-1.129,11.849-3.33c2.762-1.682,5.097-3.882,6.939-6.54l0.57-0.822L26.834,25.055L45.165,13.894z"/><circle cx="45" cy="25" r="3"/><circle cx="36" cy="25" r="3"/></svg>