<svg xmlns="http://www.w3.org/2000/svg" xmlns:xlink="http://www.w3.org/1999/xlink" viewBox="0,0,256,256" width="50px" height="50px" fill-rule="nonzero"><g fill="#ff0000" fill-rule="nonzero" stroke="none" stroke-width="1" stroke-linecap="butt" stroke-linejoin="miter" stroke-miterlimit="10" stroke-dasharray="" stroke-dashoffset="0" font-family="none" font-weight="none" font-size="none" text-anchor="none" style="mix-blend-mode: normal"><g transform="scale(5.12,5.12)"><path d="M22.40625,0.59375l-1.8125,0.8125l2.375,5.46875l-5.53125,-2.78125l-0.875,1.8125l4.1875,2.09375h-16.75c-0.55078,0 -1,0.44922 -1,1v8c0,0.55078 0.44922,1 1,1h20v-8h2v8h20c0.55469,0 1,-0.44922 1,-1v-8c0,-0.55078 -0.44531,-1 -1,-1h-16.75l4.1875,-2.09375l-0.875,-1.8125l-5.53125,2.78125l2.375,-5.46875l-1.8125,-0.8125l-2.59375,5.9375zM5,20v23c0,0.55469 0.44922,1 1,1h38c0.55469,0 1,-0.44531 1,-1v-23h-19v22h-2v-22z"></path></g></g></svg>